<svg width="70" height="70" viewBox="0 0 70 70" fill="none" xmlns="http://www.w3.org/2000/svg">
<g clip-path="url(#clip0_140_2116)">
<path d="M1 31H12L13 35H1V31Z" fill="#D09CFF"/>
<path d="M68.5 31H35L34 35H68.5V31Z" fill="#D09CFF"/>
<rect x="39" y="21" width="30" height="4" fill="#D09CFF"/>
<path d="M23.6396 53.7724V62.6997" stroke="black" stroke-miterlimit="10" stroke-linecap="round" stroke-linejoin="round"/>
<mask id="mask0_140_2116" style="mask-type:luminance" maskUnits="userSpaceOnUse" x="0" y="0" width="70" height="70">
<path d="M69.4998 69.5V0.500206H0.5V69.5H69.4998Z" fill="white" stroke="white"/>
</mask>
<g mask="url(#mask0_140_2116)">
<path d="M31.3006 65.6162C30.9355 64.7517 30.3238 64.014 29.5417 63.4954C28.7597 62.9767 27.8421 62.7 26.9037 62.7H20.4195C19.481 62.7 18.5634 62.9767 17.7814 63.4953C16.9993 64.014 16.3875 64.7517 16.0225 65.6162" stroke="black" stroke-miterlimit="10" stroke-linecap="round" stroke-linejoin="round"/>
<path d="M53.728 58.0581H57.1487" stroke="black" stroke-miterlimit="10" stroke-linecap="round" stroke-linejoin="round"/>
<path d="M53.728 43.0752H57.1487" stroke="black" stroke-miterlimit="10" stroke-linecap="round" stroke-linejoin="round"/>
<path d="M65.3623 55.6606V35.5171" stroke="black" stroke-miterlimit="10" stroke-linecap="round" stroke-linejoin="round"/>
<path d="M45.5142 35.5173V64.4165C45.5142 64.7347 45.6405 65.0398 45.8655 65.2648C46.0905 65.4898 46.3956 65.6162 46.7137 65.6162H64.1625C64.4807 65.6162 64.7859 65.4898 65.0109 65.2648C65.2358 65.0398 65.3622 64.7347 65.3622 64.4165V60.4513" stroke="black" stroke-miterlimit="10" stroke-linecap="round" stroke-linejoin="round"/>
<path d="M4.4873 35.5173V64.5896C4.48734 64.8619 4.59551 65.123 4.78803 65.3155C4.98055 65.508 5.24166 65.6162 5.51392 65.6162H7.67749C7.94976 65.6162 8.21086 65.508 8.40338 65.3155C8.5959 65.123 8.70407 64.8619 8.70411 64.5896V35.5173" stroke="black" stroke-miterlimit="10" stroke-linecap="round" stroke-linejoin="round"/>
<path d="M12.1134 30.7371H2.13978C1.99344 30.7371 1.84854 30.7659 1.71333 30.8219C1.57813 30.8779 1.45528 30.96 1.3518 31.0635C1.24831 31.1669 1.16623 31.2898 1.11022 31.425C1.05422 31.5602 1.02539 31.7051 1.02539 31.8514V34.4028C1.02539 34.5492 1.05422 34.6941 1.11022 34.8293C1.16623 34.9645 1.24831 35.0873 1.3518 35.1908C1.45528 35.2943 1.57813 35.3763 1.71333 35.4323C1.84854 35.4883 1.99344 35.5171 2.13978 35.5171H13.1256" stroke="black" stroke-miterlimit="10" stroke-linecap="round" stroke-linejoin="round"/>
<path d="M34.0625 35.5171H67.807C68.1026 35.5171 68.386 35.3997 68.595 35.1907C68.804 34.9818 68.9214 34.6984 68.9214 34.4028V31.8514C68.9214 31.236 68.4224 30.7371 67.807 30.7371H35.0748" stroke="black" stroke-miterlimit="10" stroke-linecap="round" stroke-linejoin="round"/>
<path d="M35.0753 30.7374C35.3925 27.0001 32.4444 23.6674 28.5659 23.6674H18.6233C14.7447 23.6674 11.7964 27.0001 12.1137 30.7374C12.1387 31.0404 12.1845 31.3414 12.2507 31.6381L13.126 35.5174L14.6589 42.3106C15.0746 44.1529 16.7113 45.4614 18.5999 45.4614H28.5891C30.4777 45.4614 32.1144 44.1529 32.5302 42.3106L34.063 35.5174L34.9383 31.6381C35.0046 31.3414 35.0504 31.0404 35.0753 30.7374Z" fill="#D09CFF" stroke="black" stroke-miterlimit="10" stroke-linecap="round" stroke-linejoin="round"/>
<path d="M32.1442 53.7729H15.0438C14.2371 53.7729 13.583 53.1189 13.583 52.3121C13.583 50.551 15.0108 49.1232 16.7718 49.1232H30.4162C32.1774 49.1232 33.6051 50.5509 33.6051 52.312C33.6051 53.1188 32.9509 53.7729 32.1442 53.7729Z" stroke="black" stroke-miterlimit="10" stroke-linecap="round" stroke-linejoin="round"/>
<path d="M20.7612 45.4613L21.2027 49.123" stroke="black" stroke-miterlimit="10" stroke-linecap="round" stroke-linejoin="round"/>
<path d="M25.9863 49.123L26.4278 45.4613" stroke="black" stroke-miterlimit="10" stroke-linecap="round" stroke-linejoin="round"/>
<path d="M65.3622 50.5H45.5142" stroke="black" stroke-miterlimit="10" stroke-linecap="round" stroke-linejoin="round"/>
<path d="M38.4463 10.8453V5.89799C38.4463 5.06195 39.1241 4.3841 39.9603 4.3841H67.4604C68.2965 4.3841 68.9744 5.06195 68.9744 5.89799V23.879C68.9744 24.7152 68.2965 25.3931 67.4604 25.3931H39.9603C39.1241 25.3931 38.4463 24.7152 38.4463 23.879V15.6427" stroke="black" stroke-miterlimit="10" stroke-linecap="round" stroke-linejoin="round"/>
<path d="M68.9744 21.125H38.4463" stroke="black" stroke-miterlimit="10" stroke-linecap="round" stroke-linejoin="round"/>
<path d="M58.0226 30.7373L56.8721 25.3933" stroke="black" stroke-miterlimit="10" stroke-linecap="round" stroke-linejoin="round"/>
<path d="M50.5489 25.3933L49.3984 30.7373" stroke="black" stroke-miterlimit="10" stroke-linecap="round" stroke-linejoin="round"/>
</g>
</g>
<defs>
<clipPath id="clip0_140_2116">
<rect width="70" height="70" fill="white"/>
</clipPath>
</defs>
</svg>
