<svg width="1920" height="789" viewBox="0 0 1920 789" fill="none" xmlns="http://www.w3.org/2000/svg">
<rect x="-4" width="1920" height="789" fill="#FEFDFF"/>
<path d="M1974.79 694.92C1974.81 718.246 1961.38 744.831 1929.47 777.295L1978.42 897.94C2048.54 809.529 2087.99 716.13 2088.03 631.953C2088.06 524.792 2024.23 432.573 1878.46 384.614C1773.24 349.992 1734.45 299.639 1734.5 244.256C1734.57 162.32 1819.63 69.38 1900.43 0.0951538H1654.8C1613.5 36.6121 1597.07 86.3394 1590.77 153.216C1589.29 168.976 1588.58 184.137 1588.58 198.73C1588.57 538.633 1974.69 570.013 1974.79 694.92Z" fill="#F4FDFF"/>
<path d="M2229.89 955.709C2219.3 953.737 2208.28 951.464 2196.92 948.896C2141.68 936.419 2091.06 931.017 2044.77 931.017C2007.76 931.017 1973.53 934.47 1941.98 940.527C1954.17 927.422 1966.33 913.235 1978.5 897.902C2048.62 809.491 2088.06 716.092 2088.11 631.915C2088.14 524.753 2024.31 432.535 1878.54 384.576C1773.32 349.954 1734.53 299.601 1734.58 244.217C1734.65 162.281 1819.71 69.3418 1900.51 0.0569458H2084.92C2068.17 23.4172 2058.71 50.2457 2058.71 86.6305C2058.74 153.739 2090.89 253.356 2168.67 423.668C2233.83 566.4 2262.43 691.769 2262.43 793.211C2262.41 857.543 2250.88 912.256 2229.89 955.709Z" fill="#EEFBFE"/>
<path d="M-317.429 955.709C-306.848 953.737 -295.828 951.464 -284.467 948.896C-229.221 936.419 -178.608 931.017 -132.31 931.017C-95.3003 931.017 -61.0705 934.47 -29.5224 940.527C-41.7125 927.422 -53.8782 913.235 -66.044 897.902C-136.162 809.491 -175.609 716.092 -175.658 631.915C-175.682 524.753 -111.855 432.535 33.9152 384.576C139.141 349.954 177.93 299.601 177.881 244.217C177.808 162.281 92.7449 69.3418 11.9487 0.0569407H-172.464C-155.715 23.4171 -146.255 50.2458 -146.255 86.6305C-146.28 153.739 -178.437 253.356 -256.21 423.668C-321.379 566.4 -349.977 691.769 -349.977 793.211C-349.952 857.543 -338.421 912.256 -317.429 955.709Z" fill="#FEEFF8"/>
<path opacity="0.5" d="M323.878 198.733C323.888 538.635 -62.2349 570.016 -62.3324 694.923L-175.579 631.955C-175.603 524.794 -111.776 432.576 33.994 384.617C139.219 349.995 178.008 299.641 177.96 244.258C177.886 162.322 92.8237 69.3826 12.0275 0.0977173H257.659C298.959 36.6147 315.381 86.3419 321.681 153.219C323.166 168.978 323.878 184.14 323.878 198.733Z" fill="#FEEFF8"/>
</svg>
