<svg width="1920" height="1010" viewBox="0 0 1920 1010" fill="none" xmlns="http://www.w3.org/2000/svg">
<mask id="mask0_195_872" style="mask-type:luminance" maskUnits="userSpaceOnUse" x="0" y="0" width="1920" height="1010">
<path d="M0 0H1920V1010H0V0Z" fill="white"/>
</mask>
<g mask="url(#mask0_195_872)">
<path fill-rule="evenodd" clip-rule="evenodd" d="M-427.812 530.903C-427.812 530.903 -380.644 79.0595 -157.263 378.525C66.117 677.991 353.019 448.923 542.893 448.923C732.766 448.923 788.426 513.019 939.118 644.296C1089.81 775.573 1229.81 750.236 1348.73 644.264C1467.65 538.293 1688.72 1.61538 1995.86 106.08C2303.01 210.545 2448.21 656.261 2448.21 656.261L2303.01 1324.84L-215.601 1415.37L-427.812 530.903Z" fill="#EEFBFE"/>
<path fill-rule="evenodd" clip-rule="evenodd" d="M2467.79 860.54C2467.79 860.54 2270.46 723.69 2030.62 907.543C1790.78 1091.4 1616.93 714.491 1427.17 706.227C1237.41 697.963 1205.35 845.187 1065.09 865.495C924.819 885.803 926.482 826.438 832.527 789.326C738.571 752.213 628.097 905.902 518.138 841.676C408.178 777.45 366.589 267.118 56.8579 352.692C-252.873 438.266 -409.804 854.098 -409.804 854.098L-282.426 1493.65L2232.25 1689.01L2467.79 860.54Z" fill="url(#paint0_linear_195_872)"/>
</g>
<path d="M1751.52 889.37C1751.66 891.171 1751.44 892.982 1750.88 894.7C1750.32 896.417 1749.43 898.008 1748.26 899.381C1747.08 900.755 1745.65 901.883 1744.04 902.702C1742.43 903.521 1740.67 904.016 1738.87 904.156C1737.07 904.297 1735.25 904.082 1733.53 903.523C1731.82 902.963 1730.22 902.071 1728.85 900.897C1727.48 899.723 1726.35 898.29 1725.53 896.68C1724.71 895.07 1724.21 893.315 1724.07 891.513L1737.79 890.442L1751.52 889.37Z" fill="#F0DFFE"/>
<rect width="13.9964" height="13.996" transform="matrix(0.724583 0.689188 -0.689582 0.724208 1770.79 780.703)" stroke="#5A6273" stroke-linecap="round" stroke-linejoin="round"/>
<rect width="31.2766" height="31.2757" transform="matrix(0.724583 0.689188 -0.689582 0.724208 1786.7 809.687)" fill="#F0DFFE"/>
<ellipse cx="5.99764" cy="5.9991" rx="5.99764" ry="5.9991" transform="matrix(0.525804 -0.850605 0.850861 0.52539 1692 833.885)" stroke="#3A4357"/>
<path d="M1831.33 884.083L1851.29 890.249L1833.39 904.857L1831.33 884.083Z" stroke="#3D4659"/>
<path d="M1669.4 868.839C1670.84 871.488 1671.76 874.396 1672.08 877.397C1672.4 880.399 1672.13 883.434 1671.28 886.331C1670.43 889.228 1669.02 891.929 1667.13 894.28C1665.23 896.632 1662.89 898.587 1660.24 900.035C1657.59 901.483 1654.68 902.394 1651.68 902.718C1648.68 903.042 1645.64 902.772 1642.74 901.922C1639.84 901.073 1637.14 899.661 1634.79 897.768C1632.44 895.875 1630.48 893.537 1629.03 890.888L1649.21 879.863L1669.4 868.839Z" fill="white" stroke="#50586A"/>
<rect width="13.9964" height="13.996" transform="matrix(0.724583 0.689188 -0.689582 0.724208 280.334 86.4897)" fill="white" stroke="#D09CFF" stroke-linecap="round" stroke-linejoin="round"/>
<rect width="38.6772" height="38.6762" transform="matrix(0.724583 0.689188 -0.689582 0.724208 150.67 67.5)" fill="#F0DFFE"/>
<path d="M251.186 131.965C251.186 143.004 242.231 151.954 231.186 151.954C220.14 151.954 211.186 143.004 211.186 131.965C211.186 120.926 220.14 111.976 231.186 111.976C242.231 111.976 251.186 120.926 251.186 131.965Z" fill="white" stroke="#453239"/>
<ellipse cx="188.475" cy="238.539" rx="6.5" ry="6.49646" stroke="#4A5265"/>
<ellipse cx="167.475" cy="213.553" rx="13.5" ry="13.4927" fill="#F0DFFE"/>
<defs>
<linearGradient id="paint0_linear_195_872" x1="-5.49962" y1="1009.13" x2="1524.75" y2="1028.84" gradientUnits="userSpaceOnUse">
<stop stop-color="#FDEFF8"/>
<stop offset="1" stop-color="#FDEFF8" stop-opacity="0"/>
</linearGradient>
</defs>
</svg>
