<svg width="50" height="50" viewBox="0 0 50 50" fill="none" xmlns="http://www.w3.org/2000/svg">
<g clip-path="url(#clip0_140_2304)">
<circle cx="25" cy="50" r="19.5312" fill="#D09CFF"/>
<path d="M12.7438 19.6243H28.1212C28.8746 19.6243 29.4875 19.0114 29.4875 18.258V2.88057C29.4875 2.12715 28.8746 1.51416 28.1212 1.51416H12.7438C11.9903 1.51416 11.3774 2.12715 11.3774 2.88057V3.2H8.75352V2.60371C8.75352 1.16797 7.58555 0 6.14981 0C4.71406 0 3.54609 1.16797 3.54609 2.60371V29.5246C3.54609 29.9291 3.87402 30.257 4.27852 30.257C4.68301 30.257 5.01094 29.9291 5.01094 29.5246V2.60371C5.01094 1.97568 5.52178 1.46484 6.14981 1.46484C6.77783 1.46484 7.28867 1.97568 7.28867 2.60371V3.93242V7.46191V13.6766V17.2061V44.3772H5.01094V32.8659C5.01094 32.4614 4.68301 32.1335 4.27852 32.1335C3.87402 32.1335 3.54609 32.4614 3.54609 32.8659V44.3772H2.80859C1.25986 44.3772 0 45.6359 0 47.1831V48.8357C0 49.4731 0.518555 49.9917 1.15596 49.9917H11.1437C11.7825 49.9917 12.3023 49.4731 12.3023 48.8357V47.1831C12.3023 45.6359 11.0425 44.3772 9.49375 44.3772H8.75342V17.9385H11.3772V18.2579C11.3773 19.0114 11.9903 19.6243 12.7438 19.6243ZM10.8376 47.1831V48.5269H1.46484V47.1831C1.46484 46.4437 2.06768 45.8421 2.80859 45.8421H4.27852H8.02109H9.49385C10.2348 45.8421 10.8376 46.4437 10.8376 47.1831ZM8.75352 8.19443H11.3773V12.9442H8.75352V8.19443ZM12.8422 2.979H28.0227V18.1595H12.8422V17.2061V13.6766V7.46201V3.93252V2.979ZM11.3773 4.66494V6.72959H8.75352V4.66494H11.3773ZM8.75352 16.4736V14.409H11.3773V16.4736H8.75352Z" fill="#212529"/>
<path d="M50.0001 30.8617C50.0001 29.2093 48.6632 27.8648 47.0198 27.8648H44.2197L43.2608 25.842C42.6819 24.6209 42.2444 23.7878 41.4672 23.3518C40.7496 22.9494 39.9307 22.9521 38.4405 22.9565L26.1553 22.9568L26.0569 22.9565C24.569 22.9517 23.7497 22.9494 23.0324 23.3519C22.2556 23.7879 21.8181 24.6209 21.2393 25.842L20.2804 27.8648H17.4803C15.8369 27.8648 14.5 29.2092 14.5 30.8617C14.5 32.5005 15.815 33.8355 17.4396 33.8575L16.5917 35.6464C16.1191 36.6406 16.0863 36.7778 16.0909 37.7443C16.0913 37.8292 16.0917 44.4066 16.0917 44.4066C16.0917 44.9601 16.0925 45.8125 16.8807 46.1268V48.1686C16.8807 49.1785 17.7022 50 18.712 50H22.1086C23.1169 50 23.9372 49.1784 23.9372 48.1686V46.249H30.6043C31.0089 46.249 31.3367 45.9211 31.3367 45.5166C31.3367 45.1121 31.0089 44.7842 30.6043 44.7842H17.6131C17.5952 44.7842 17.5788 44.784 17.5638 44.7836C17.5565 44.6611 17.5561 37.8244 17.5557 37.7375C17.5524 37.0374 17.5524 37.0374 17.915 36.2745L19.0603 33.8586H45.4397L46.5854 36.2753C46.9454 37.0327 46.9454 37.0327 46.9417 37.7248C46.9412 37.8151 46.9407 44.6611 46.9337 44.7838C46.9194 44.7842 33.9372 44.7844 33.9372 44.7844C33.5326 44.7844 33.2048 45.1123 33.2048 45.5168C33.2048 45.9213 33.5326 46.2492 33.9372 46.2492H40.56V48.1687C40.56 49.1786 41.3814 50.0001 42.3913 50.0001H45.7879C46.7978 50.0001 47.6193 49.1785 47.6193 48.1687V46.1264C48.4048 45.8116 48.4056 44.9599 48.4056 44.4067C48.4056 44.4067 48.4061 37.8204 48.4065 37.7323C48.4115 36.7826 48.3742 36.6266 47.9086 35.6472L47.0603 33.8576C48.685 33.8355 50.0001 32.5005 50.0001 30.8617ZM15.9648 30.8617C15.9648 30.017 16.6446 29.3297 17.4803 29.3297H19.586L18.1337 32.3936H17.4804C16.6446 32.3936 15.9648 31.7064 15.9648 30.8617ZM22.4725 46.249V48.1685C22.4725 48.3673 22.3059 48.535 22.1087 48.535H18.7121C18.5134 48.535 18.3456 48.3672 18.3456 48.1685V46.249H22.4725ZM22.5629 26.4694C23.0768 25.3854 23.3854 24.8337 23.7492 24.6295C24.1305 24.4156 24.8531 24.4175 26.0524 24.4215L38.3465 24.4218L38.445 24.4215C39.6452 24.4175 40.369 24.4155 40.7507 24.6296C41.1148 24.8338 41.4234 25.3855 41.9371 26.4694L44.7454 32.3937H19.7547L22.5629 26.4694ZM46.1546 48.1686C46.1546 48.3674 45.9867 48.5351 45.788 48.5351H42.3914C42.1928 48.5351 42.0249 48.3673 42.0249 48.1686V46.249H46.1546V48.1686ZM47.0198 32.3936H46.3665L44.9141 29.3297H47.0198C47.8555 29.3297 48.5353 30.017 48.5353 30.8617C48.5353 31.7064 47.8555 32.3936 47.0198 32.3936Z" fill="#212529"/>
<path d="M28.5366 39.0073H35.9638C36.3684 39.0073 36.6962 38.6794 36.6962 38.2749C36.6962 37.8704 36.3684 37.5425 35.9638 37.5425H28.5366C28.132 37.5425 27.8042 37.8704 27.8042 38.2749C27.8042 38.6794 28.132 39.0073 28.5366 39.0073Z" fill="#212529"/>
<path d="M28.5366 42.3184H35.9638C36.3684 42.3184 36.6962 41.9904 36.6962 41.5859C36.6962 41.1814 36.3684 40.8535 35.9638 40.8535H28.5366C28.132 40.8535 27.8042 41.1814 27.8042 41.5859C27.8042 41.9904 28.132 42.3184 28.5366 42.3184Z" fill="#212529"/>
<path d="M44.5439 39.2411C44.5439 37.5443 43.1648 36.1641 41.4696 36.1641C39.7729 36.1641 38.3926 37.5444 38.3926 39.2411C38.3926 40.9378 39.7729 42.3183 41.4696 42.3183C43.1648 42.3182 44.5439 40.9378 44.5439 39.2411ZM39.8574 39.2411C39.8574 38.3521 40.5807 37.6289 41.4696 37.6289C42.3571 37.6289 43.0791 38.3521 43.0791 39.2411C43.0791 40.1302 42.357 40.8534 41.4696 40.8534C40.5807 40.8533 39.8574 40.1301 39.8574 39.2411Z" fill="#212529"/>
<path d="M19.9561 39.2411C19.9561 40.9379 21.3353 42.3183 23.0304 42.3183C24.7271 42.3183 26.1074 40.9379 26.1074 39.2411C26.1074 37.5443 24.727 36.1641 23.0304 36.1641C21.3353 36.164 19.9561 37.5443 19.9561 39.2411ZM24.6427 39.2411C24.6427 40.1302 23.9194 40.8534 23.0305 40.8534C22.143 40.8534 21.421 40.1302 21.421 39.2411C21.421 38.3521 22.1431 37.6289 23.0305 37.6289C23.9194 37.6288 24.6427 38.3521 24.6427 39.2411Z" fill="#212529"/>
<path d="M20.6356 4.43945H17.6299C17.2313 4.43945 16.8975 4.77324 16.8975 5.17188V15.9669C16.8975 16.3714 17.2254 16.6993 17.6299 16.6993C18.0344 16.6993 18.3623 16.3714 18.3623 15.9669V12.0063C19.0662 12.0024 20.1145 11.9971 20.6356 11.9971C22.7521 11.9971 24.4741 10.302 24.4741 8.21826C24.4741 6.13457 22.7521 4.43945 20.6356 4.43945ZM20.6356 10.5322C20.1176 10.5322 19.0843 10.5375 18.379 10.5414C18.375 9.81836 18.3697 8.74668 18.3697 8.21826C18.3697 7.77354 18.3667 6.65566 18.3645 5.9043H20.6355C21.9222 5.9043 23.0092 6.96396 23.0092 8.21826C23.0092 9.47256 21.9222 10.5322 20.6356 10.5322Z" fill="#212529"/>
</g>
<defs>
<clipPath id="clip0_140_2304">
<rect width="50" height="50" fill="white"/>
</clipPath>
</defs>
</svg>
