<svg width="50" height="50" viewBox="0 0 50 50" fill="none" xmlns="http://www.w3.org/2000/svg">
<path d="M48.4729 29.1635C48.4151 23.5852 46.1586 18.255 42.1936 14.3309C38.2285 10.4067 32.8753 8.20557 27.2967 8.20557C21.7182 8.20557 16.3649 10.4067 12.3999 14.3309C8.4349 18.255 6.1784 23.5852 6.12061 29.1635V30.9362H48.4729V29.1635Z" fill="#D09CFF"/>
<path d="M48.4725 27.4702H1.5271C1.30224 27.4684 1.08721 27.3779 0.92885 27.2182C0.77049 27.0586 0.681633 26.8428 0.681641 26.618C0.681641 20.1666 3.24445 13.9794 7.80627 9.4176C12.3681 4.85577 18.5553 2.29297 25.0066 2.29297C31.458 2.29297 37.6452 4.85577 42.207 9.4176C46.7688 13.9794 49.3316 20.1666 49.3316 26.618C49.3316 26.7305 49.3094 26.8419 49.2661 26.9457C49.2229 27.0496 49.1595 27.1438 49.0796 27.223C48.9997 27.3023 48.905 27.3649 48.8008 27.4073C48.6966 27.4498 48.585 27.4711 48.4725 27.4702ZM2.39528 25.7657H47.6044C47.3849 19.9174 44.9073 14.3817 40.6921 10.3217C36.477 6.26173 30.8523 3.99347 24.9998 3.99347C19.1474 3.99347 13.5227 6.26173 9.3075 10.3217C5.09232 14.3817 2.61473 19.9174 2.39528 25.7657Z" fill="#212529"/>
<path d="M33.45 20.3134H16.55C16.324 20.3134 16.1072 20.2236 15.9474 20.0638C15.7875 19.904 15.6978 19.6872 15.6978 19.4612C15.6978 19.2351 15.7875 19.0183 15.9474 18.8585C16.1072 18.6987 16.324 18.6089 16.55 18.6089H33.45C33.6761 18.6089 33.8928 18.6987 34.0527 18.8585C34.2125 19.0183 34.3023 19.2351 34.3023 19.4612C34.3023 19.6872 34.2125 19.904 34.0527 20.0638C33.8928 20.2236 33.6761 20.3134 33.45 20.3134Z" fill="#212529"/>
<path d="M38.1817 47.7068H21.9885C21.7625 47.7068 21.5457 47.617 21.3859 47.4572C21.226 47.2973 21.1362 47.0806 21.1362 46.8545V31.7795C21.1362 31.5535 21.226 31.3367 21.3859 31.1769C21.5457 31.017 21.7625 30.9272 21.9885 30.9272C22.2145 30.9272 22.4313 31.017 22.5912 31.1769C22.751 31.3367 22.8408 31.5535 22.8408 31.7795V46.0022H37.3226V31.7795C37.3226 31.5535 37.4124 31.3367 37.5722 31.1769C37.7321 31.017 37.9488 30.9272 38.1749 30.9272C38.4009 30.9272 38.6177 31.017 38.7775 31.1769C38.9373 31.3367 39.0271 31.5535 39.0271 31.7795V46.8545C39.0271 47.0794 38.9383 47.2951 38.7799 47.4548C38.6216 47.6144 38.4065 47.705 38.1817 47.7068Z" fill="#212529"/>
<path d="M21.9886 40.7727H10.7136C10.4876 40.7727 10.2708 40.6829 10.111 40.5231C9.95112 40.3632 9.86133 40.1465 9.86133 39.9204V31.7795C9.86133 31.5535 9.95112 31.3367 10.111 31.1769C10.2708 31.017 10.4876 30.9272 10.7136 30.9272C10.9396 30.9272 11.1564 31.017 11.3162 31.1769C11.4761 31.3367 11.5659 31.5535 11.5659 31.7795V39.0682H21.1363V31.7795C21.1363 31.5535 21.2261 31.3367 21.386 31.1769C21.5458 31.017 21.7626 30.9272 21.9886 30.9272C22.2146 30.9272 22.4314 31.017 22.5912 31.1769C22.7511 31.3367 22.8409 31.5535 22.8409 31.7795V39.9204C22.8409 40.1465 22.7511 40.3632 22.5912 40.5231C22.4314 40.6829 22.2146 40.7727 21.9886 40.7727Z" fill="#212529"/>
<path d="M32.0979 35.7089H25.4001C25.1741 35.7089 24.9573 35.6191 24.7975 35.4593C24.6376 35.2995 24.5479 35.0827 24.5479 34.8567C24.5479 34.6306 24.6376 34.4139 24.7975 34.254C24.9573 34.0942 25.1741 34.0044 25.4001 34.0044H32.0979C32.3239 34.0044 32.5407 34.0942 32.7005 34.254C32.8603 34.4139 32.9501 34.6306 32.9501 34.8567C32.9501 35.0827 32.8603 35.2995 32.7005 35.4593C32.5407 35.6191 32.3239 35.7089 32.0979 35.7089Z" fill="#212529"/>
<path d="M32.0979 40.7729H25.4001C25.1741 40.7729 24.9573 40.6831 24.7975 40.5233C24.6376 40.3634 24.5479 40.1467 24.5479 39.9206C24.5479 39.6946 24.6376 39.4778 24.7975 39.318C24.9573 39.1582 25.1741 39.0684 25.4001 39.0684H32.0979C32.3239 39.0684 32.5407 39.1582 32.7005 39.318C32.8603 39.4778 32.9501 39.6946 32.9501 39.9206C32.9501 40.1467 32.8603 40.3634 32.7005 40.5233C32.5407 40.6831 32.3239 40.7729 32.0979 40.7729Z" fill="#212529"/>
</svg>
