<svg width="600" height="600" viewBox="0 0 600 600" fill="none" xmlns="http://www.w3.org/2000/svg">
<path d="M448.2 281V494.85C448.2 510.5 435.55 523.15 419.9 523.15H253.7C238.05 523.15 225.4 510.5 225.4 494.85V70.55C225.4 54.9 238.05 42.25 253.7 42.25H419.9C435.55 42.25 448.2 54.9 448.2 70.55V281Z" fill="white"/>
<path d="M407.3 532.1L370.55 481.2C370.55 481.2 349.85 452.6 336.85 452.1C336.75 459.6 337.25 513.4 339.55 532.05H407.3V532.1Z" fill="#BFF3FF"/>
<path d="M289.1 31.0498H384.5C388.85 31.0498 392.35 34.5498 392.35 38.8998V50.9498C392.35 55.2998 388.85 58.7998 384.5 58.7998H289.1C284.75 58.7998 281.25 55.2998 281.25 50.9498V38.8998C281.25 34.5998 284.75 31.0498 289.1 31.0498Z" fill="#F3F3F3"/>
<path d="M441.401 523.95H448.201V441.15L390.901 431.65L336.801 452.15C339.351 457.95 352.801 496.45 381.651 530.15H441.351V523.95H441.401Z" fill="#BFF3FF"/>
<path d="M320.851 320.85C316.201 320.75 316.201 327.9 316.201 327.9C313.951 321.2 264.851 199.05 264.851 199.05C264.851 199.05 254.701 203.35 266.401 226.45C262.601 228.7 252.051 237.15 256.401 250.75C259.701 260.95 266.901 264.55 271.401 264.55C270.651 272.2 287.001 350.35 289.151 354.1C294.151 362.95 303.801 372.6 309.501 372.85C318.601 373.3 341.001 361.35 346.551 355.1C352.101 348.85 329.601 321 320.851 320.85Z" fill="#FFCDAE"/>
<path d="M388.45 277.75C366.3 258 312.25 305.3 313.3 313.5C314.35 321.7 343.45 351.35 352 348.85C360.55 346.35 405.9 293.25 388.45 277.75Z" fill="#FFBBF3"/>
<path d="M448.2 281C438.35 265.05 423.9 254.75 403.2 254.75C331.35 254.75 329.3 441.75 336.8 452.15C343.45 461.35 422.7 463.75 448.2 457.4" fill="#FFBBF3"/>
<path d="M448.2 349.25L440.65 352.35C441.3 354.75 444.2 368.2 448.2 383.05" fill="#DE8E68"/>
<path d="M448.2 279.35C443.2 275.65 438.1 274.15 433.4 276.1C406.3 287.4 425.6 355.35 433.4 357.85C435.9 358.65 441.6 357.85 448.2 356.1" fill="#FFBBF3"/>
<path d="M417.001 271.15C417.001 277.1 384.051 278.4 384.051 271.15V230.65H417.001V271.15Z" fill="#FFCDAE"/>
<path d="M423.875 224.426C432.073 203.822 426.301 182.178 410.982 176.083C395.664 169.988 376.6 181.75 368.402 202.355C360.204 222.959 365.977 244.603 381.295 250.698C396.614 256.792 415.677 245.03 423.875 224.426Z" fill="#FFCDAE"/>
<path d="M427.258 231.303C430.297 227.06 430.358 221.899 427.395 219.777C424.431 217.654 419.565 219.373 416.526 223.616C413.487 227.86 413.426 233.02 416.389 235.142C419.353 237.265 424.219 235.546 427.258 231.303Z" fill="#DE8E68"/>
<path d="M449.6 208.45C449.6 202.95 444.45 196.9 443.5 190C443 186.5 444.1 171.95 440 167C431.5 156.8 426.5 158.9 420 156.5C408.7 152.35 404.35 145.5 395 145.5C384.4 145.5 380.1 151 372.5 151C363.8 151 356.7 147 344.5 147C338 147 329.5 155.5 329.5 163C329.5 180.75 346 178.2 346 182.5C346 185.5 345 187.9 345 192C345 197.4 352 200.5 356 200.5C368.2 200.5 369.8 199 369.8 199C372.2 194.15 375.3 189.7 379 185.75C379.5 185.25 387.4 190.8 400.3 191.25C410.9 191.6 418.35 193.65 418.35 198.6C418.35 202.1 417.05 212.45 417.15 215.35C417.25 218.25 418.25 220.15 418.9 220.15C419.55 220.15 419.9 219.2 424 219.2C428.35 219.2 428.7 224.55 429.45 224.55C433.85 224.55 449.6 221 449.6 208.45Z" fill="#FD8369"/>
<path d="M252.25 142.4H277.2C284.6 142.4 290.6 148.4 290.6 155.8V180.75C290.6 188.15 284.6 194.15 277.2 194.15H252.25C244.85 194.15 238.85 188.15 238.85 180.75V155.8C238.85 148.4 244.85 142.4 252.25 142.4Z" fill="#FFBBF3"/>
<path d="M284.401 157.15C290.255 157.15 295.001 152.404 295.001 146.55C295.001 140.696 290.255 135.95 284.401 135.95C278.547 135.95 273.801 140.696 273.801 146.55C273.801 152.404 278.547 157.15 284.401 157.15Z" fill="#FD8369"/>
<path d="M420.8 27H252.85C230.25 27 211.9 45.35 211.9 67.95V497.35C211.9 519.95 230.25 538.3 252.85 538.3H420.8C443.4 538.3 461.75 519.95 461.75 497.35V67.95C461.75 45.35 443.4 27 420.8 27ZM448.2 281V494.85C448.2 510.5 435.55 523.15 419.9 523.15H253.7C238.05 523.15 225.4 510.5 225.4 494.85V70.55C225.4 54.9 238.05 42.25 253.7 42.25H419.9C435.55 42.25 448.2 54.9 448.2 70.55V281Z" fill="#F3F3F3"/>
<path d="M446.799 90.5498H507.449C518.399 90.5498 527.299 99.4498 527.299 110.4C527.299 121.35 518.399 130.25 507.449 130.25H446.799C435.849 130.25 426.949 121.35 426.949 110.4C426.949 99.3998 435.849 90.5498 446.799 90.5498Z" fill="#BFF3FF"/>
<path d="M450.55 121L433.35 103.75V138.25L450.55 121Z" fill="#BFF3FF"/>
<path d="M456.65 116.05C459.412 116.05 461.65 113.811 461.65 111.05C461.65 108.288 459.412 106.05 456.65 106.05C453.889 106.05 451.65 108.288 451.65 111.05C451.65 113.811 453.889 116.05 456.65 116.05Z" fill="#FFBBF3"/>
<path d="M477.15 116.05C479.912 116.05 482.15 113.811 482.15 111.05C482.15 108.288 479.912 106.05 477.15 106.05C474.389 106.05 472.15 108.288 472.15 111.05C472.15 113.811 474.389 116.05 477.15 116.05Z" fill="#FFBBF3"/>
<path d="M497.6 116.05C500.361 116.05 502.6 113.811 502.6 111.05C502.6 108.288 500.361 106.05 497.6 106.05C494.838 106.05 492.6 108.288 492.6 111.05C492.6 113.811 494.838 116.05 497.6 116.05Z" fill="#FFBBF3"/>
<path d="M175.551 493.65C183.001 490.45 188.801 485.5 188.801 471.25C188.801 404.5 109.801 422.5 109.801 367.05" stroke="#BFF3FF" stroke-width="9" stroke-miterlimit="10" stroke-linecap="round"/>
<path d="M123.7 366.7C128 372.3 113.65 378.65 111.6 376C109.55 373.35 119.15 360.75 123.7 366.7Z" fill="#BFF3FF"/>
<path d="M193.699 268.6C198.899 275.4 183.499 281.6 180.999 278.35C178.499 275.1 188.099 261.3 193.699 268.6Z" fill="#BFF3FF"/>
<path d="M189.5 296.7C193.65 304.2 173.5 310.25 171.5 306.65C169.5 303.05 185.1 288.65 189.5 296.7Z" fill="#BFF3FF"/>
<path d="M190.7 318.05C196.15 324.65 177.4 334.25 174.8 331.1C172.2 327.95 184.9 310.95 190.7 318.05Z" fill="#BFF3FF"/>
<path d="M197.1 342C202.55 348.6 183.8 358.2 181.2 355.05C178.6 351.9 191.3 334.95 197.1 342Z" fill="#BFF3FF"/>
<path d="M202.701 364.35C207.651 370.35 191.251 378.55 188.901 375.65C186.551 372.75 197.401 357.9 202.701 364.35Z" fill="#BFF3FF"/>
<path d="M210.201 388.8C215.151 394.8 198.751 403 196.401 400.1C194.051 397.2 204.901 382.35 210.201 388.8Z" fill="#BFF3FF"/>
<path d="M96.4998 362.3C98.2998 355.5 112.15 362.9 111.3 366.2C110.45 369.5 94.5998 369.6 96.4998 362.3Z" fill="#BFF3FF"/>
<path d="M96.2503 386.25C95.3503 379.3 111 381 111.4 384.35C111.8 387.7 97.2003 393.75 96.2503 386.25Z" fill="#BFF3FF"/>
<path d="M110.05 408C105.5 402.65 119.5 395.5 121.7 398.05C123.9 400.6 114.95 413.7 110.05 408Z" fill="#BFF3FF"/>
<path d="M127.401 419.75C124.651 413.3 140.15 410.7 141.45 413.8C142.75 416.9 130.301 426.65 127.401 419.75Z" fill="#BFF3FF"/>
<path d="M150.651 431.95C147.901 425.5 163.401 422.9 164.701 426C166.001 429.1 153.601 438.85 150.651 431.95Z" fill="#BFF3FF"/>
<path d="M168.101 449.65C167.501 442.65 183.051 445 183.351 448.35C183.651 451.7 168.751 457.15 168.101 449.65Z" fill="#BFF3FF"/>
<path d="M131.249 381.75C136.749 386.15 124.349 395.8 121.699 393.7C119.049 391.6 125.349 377 131.249 381.75Z" fill="#BFF3FF"/>
<path d="M143.7 394.25C149.75 397.85 138.85 409.1 135.95 407.4C133.05 405.7 137.25 390.45 143.7 394.25Z" fill="#BFF3FF"/>
<path d="M166.551 406.55C172.251 410.65 160.301 420.9 157.551 418.9C154.801 416.9 160.451 402.15 166.551 406.55Z" fill="#BFF3FF"/>
<path d="M176.95 496.25C176.95 493.4 201.2 466.8 201.2 433.75C201.2 379.85 171.1 352.85 171.1 314.35C171.1 307.05 171.75 284.15 183.35 274.85" stroke="#BFF3FF" stroke-width="9" stroke-miterlimit="10" stroke-linecap="round"/>
<path d="M209.9 558.2H165.7C163.65 558.2 161.8 556.9 161.15 554.9L139.15 488.25C138.35 485.75 139.7 483.05 142.2 482.2C142.7 482.05 143.2 481.95 143.7 481.95H232.1C234.75 481.95 236.9 484.1 236.9 486.75C236.9 487.25 236.8 487.75 236.65 488.25L214.45 554.9C213.75 556.9 211.95 558.2 209.9 558.2Z" fill="#FD8369"/>
<path d="M217.301 416.85C219.901 424.2 201.701 426.3 200.501 422.8C199.301 419.3 214.551 408.95 217.301 416.85Z" fill="#BFF3FF"/>
<path d="M187.601 427.65C193.351 422.45 202.351 438.4 199.551 440.9C196.751 443.4 181.401 433.25 187.601 427.65Z" fill="#BFF3FF"/>
<path d="M182.95 407.75C186.75 401 200.3 413.3 198.5 416.5C196.7 419.7 178.85 415 182.95 407.75Z" fill="#BFF3FF"/>
<path d="M178.6 384.15C182.4 377.4 195.95 389.7 194.15 392.9C192.35 396.1 174.5 391.4 178.6 384.15Z" fill="#BFF3FF"/>
<path d="M170.85 365.4C173.35 358 188.95 367.55 187.75 371.1C186.55 374.65 168.15 373.25 170.85 365.4Z" fill="#BFF3FF"/>
<path d="M159.851 339.5C163.501 332.6 177.351 344.55 175.601 347.85C173.851 351.15 156.001 346.9 159.851 339.5Z" fill="#BFF3FF"/>
<path d="M154.699 310.7C158.949 304.2 171.699 317.35 169.649 320.45C167.599 323.55 150.149 317.7 154.699 310.7Z" fill="#BFF3FF"/>
<path d="M157.25 285.9C161.5 279.4 174.25 292.55 172.2 295.65C170.15 298.75 152.7 292.9 157.25 285.9Z" fill="#BFF3FF"/>
<path d="M217.301 442.35C219.901 449.7 201.701 451.8 200.501 448.3C199.301 444.8 214.551 434.5 217.301 442.35Z" fill="#BFF3FF"/>
</svg>
